<?xml version="1.0" encoding="utf-8"?>
<!-- Generator: Adobe Illustrator 27.3.1, SVG Export Plug-In . SVG Version: 6.00 Build 0)  -->
<svg version="1.1" id="Layer_1" xmlns="http://www.w3.org/2000/svg" xmlns:xlink="http://www.w3.org/1999/xlink" x="0px" y="0px"
	 viewBox="0 0 243.6 60.2" style="enable-background:new 0 0 243.6 60.2;" xml:space="preserve">
<style type="text/css">
	.st0{fill:#FFFFFF;}
</style>
<g>
	<g>
		<path class="st0" d="M40.4,50.6c-0.5,2.7-1,5.5-1.3,8.4c-2.7,0.5-5.1,0.8-7.3,1c-2.2,0.2-4.1,0.3-5.7,0.3c-3.5,0-6.9-0.5-10.1-1.5
			s-6.1-2.5-8.6-4.7c-2.6-2.1-4.4-4.7-5.6-7.7c-1.1-3-1.7-6.3-1.7-9.9c0-3.9,0.7-7.5,2.1-10.8c1.4-3.3,3.4-6.1,6-8.4
			c2.6-2.3,5.7-4,9.2-5.1c3.5-1.1,7.2-1.7,11.1-1.7c3.8,0,7.9,0.4,12.4,1.3c0.1,2.1,0.1,3.6,0.2,4.4l0.2,3.8
			c-2.6-0.7-4.9-1.2-6.6-1.4c-1.8-0.3-3.4-0.4-5-0.4c-2.5,0-4.9,0.4-7.2,1.1c-2.3,0.8-4.3,2-6.1,3.6c-1.8,1.7-3.1,3.7-4.1,6
			s-1.4,4.8-1.4,7.4c0,3,0.6,5.8,1.8,8.2c1.2,2.4,3.1,4.4,5.6,5.9c2.6,1.5,5.8,2.2,9.6,2.2C31.3,52.7,35.5,52,40.4,50.6z"/>
	</g>
	<g>
		<path class="st0" d="M44.3,59.4L45.1,48l0.8-16.3l0.5-20.2c2.1,0,3.8,0.1,5.1,0.1c1.8,0,3.5,0,5.1-0.1L56,19.8
			c-0.1,2.1-0.3,5.4-0.6,9.9c0.8-1.1,1.4-2,1.9-2.5s1.1-1.1,1.7-1.6c0.6-0.5,1.3-0.9,1.9-1.2c0.7-0.3,1.4-0.6,2.3-0.9
			c0.9-0.3,1.9-0.5,2.9-0.6c1.1-0.1,2.2-0.2,3.3-0.2c1.9,0,3.8,0.2,5.6,0.7c1.8,0.4,3.3,1.2,4.6,2.2s2.2,2.3,2.7,3.7
			c0.5,1.4,0.7,2.9,0.7,4.4c0,1-0.1,2.6-0.2,4.7l-0.9,15.4C82,55.5,82,57.3,82,59.4c-1.9,0-3.6-0.1-5-0.1l-5.4,0
			c0.3-2.8,0.6-6.5,0.9-11.3c0.3-4.8,0.5-8.2,0.5-10.2c0-1.9-0.3-3.3-0.9-4.3c-0.6-1-1.5-1.8-2.6-2.3c-1.2-0.5-2.4-0.8-3.8-0.8
			c-1.8,0-3.3,0.3-4.7,0.9c-1.3,0.6-2.4,1.5-3.3,2.7c-0.7,1-1.3,2.4-1.8,4.3c-0.5,2-0.9,5-1.1,9.1c-0.1,2-0.2,5.9-0.4,11.7l-4.8,0
			C48.3,59.3,46.5,59.3,44.3,59.4z"/>
	</g>
	<g>
		<path class="st0" d="M94.7,30.3c-1.5,0.5-3-0.8-2.8-2.3v0c0,0,0,0,0,0c0.2-1.8,1.6-3.4,3.4-3.7c2-0.4,3.8-0.7,5.4-0.9
			c2.4-0.3,4.8-0.5,7.1-0.5c2.6,0,4.9,0.3,7.1,0.9c2.2,0.6,3.8,1.6,5.1,2.9c1.2,1.3,1.8,3.2,1.8,5.7c0,1.3-0.2,4.7-0.6,10.2
			c-0.4,5.5-0.6,11.1-0.7,16.9c0,0,0,0,0,0c-1.8,0-3.4-0.1-4.9-0.1c-1.4,0-3.1,0-5,0.1c0,0,0,0,0,0c0.3-2.8,0.6-6.1,0.7-9.8l0.5-8.7
			c0,0,0,0,0,0c-0.9,0.6-1.6,1-2,1.2c-0.5,0.2-1,0.5-1.6,0.7c-0.6,0.2-1.6,0.5-3.1,0.9c-1.5,0.4-2.7,0.8-3.6,1.1
			c-0.9,0.3-1.7,0.7-2.4,1c-0.7,0.4-1.3,0.8-1.8,1.3c-0.5,0.5-0.9,1-1.1,1.5S96,49.6,96,50.2c0,1,0.3,1.8,0.9,2.5
			c0.6,0.7,1.3,1.2,2.2,1.5c0.9,0.3,1.9,0.4,3.1,0.4c0.8,0,1.5-0.1,2.4-0.2l0,0c1.5-0.2,2.7,1.2,2.3,2.6l0,0
			c-0.4,1.6-1.7,2.7-3.3,2.9c-0.5,0.1-0.9,0.1-1.3,0.1c-1,0.1-1.9,0.1-2.7,0.1c-3,0-5.4-0.4-7.3-1.2s-3.3-2.1-4.2-3.8
			c-0.9-1.7-1.4-3.5-1.4-5.2c0-1,0.2-2,0.5-3s0.9-1.9,1.5-2.7c0.7-0.8,1.6-1.6,2.6-2.4c1.1-0.8,2.6-1.5,4.7-2.2
			c2-0.7,4.7-1.4,8.1-2.2c0.9-0.2,1.8-0.4,2.8-0.7c1-0.3,1.7-0.5,2.3-0.8c0.6-0.3,1.1-0.6,1.5-1c0.4-0.4,0.7-0.8,0.9-1.3
			c0.2-0.4,0.3-0.9,0.3-1.4c0-0.9-0.3-1.7-0.9-2.3c-0.6-0.6-1.4-1.1-2.3-1.3c-1-0.2-2-0.4-3.1-0.4C102.2,28.4,98.6,29,94.7,30.3z"/>
	</g>
	<g>
		<path class="st0" d="M149.1,52c-0.3,1.3-0.7,3.7-1.3,7.2c-2,0.4-3.5,0.7-4.6,0.8c-1.1,0.1-2.2,0.2-3.2,0.2c-1.7,0-3.3-0.2-4.7-0.5
			c-1.4-0.3-2.5-0.9-3.4-1.7c-0.9-0.8-1.5-1.8-1.8-2.9c-0.3-1.1-0.5-2.3-0.5-3.5c0-0.3,0-0.7,0-1.2c0-0.5,0.1-2.2,0.3-5l0.8-14.6
			h-5.1c0.1-1.4,0.2-3.7,0.3-6.8h5.3c0.1-0.7,0.1-1.6,0.2-2.7c0.1-2.5,1.9-4.5,4.4-5l0,0c0.9-0.2,2.5-0.6,5-1.2
			c-0.2,3.2-0.3,6.1-0.3,8.9h8.9c-0.2,3.2-0.2,5.4-0.2,6.8h-9c-0.5,9.5-0.7,15.1-0.7,16.6c0,1.5,0.2,2.6,0.5,3.4
			c0.3,0.8,0.8,1.4,1.5,1.7s1.5,0.5,2.3,0.5c0.6,0,1.2,0,1.8-0.1C146.3,52.7,147.5,52.5,149.1,52z"/>
	</g>
	<g>
		<path class="st0" d="M205,23.7c-2.8,0-5.1,2.2-5.2,5.1c-0.1,2.8-0.2,5.8-0.3,8.8c-0.2,4.9-0.4,9.2-0.6,13
			c-0.1,2.4-0.4,5.3-0.8,8.8c2.5,0,4.3-0.1,5.5-0.1c1.3,0,3,0,5.1,0.1c0-2.8,0-6.6,0.1-11.4s0.2-9,0.4-12.7
			c0.2-3.7,0.4-7.6,0.8-11.7C207.8,23.7,206.1,23.7,205,23.7L205,23.7z"/>
	</g>
	<g>
		<path class="st0" d="M213.2,59.4c0.1-1.4,0.1-2.9,0.1-4.6c0-1.8,0.7-3.6,1.8-5.1l0,0l17.2-19.4h-1.8c-3.1,0-5.8,0-8.2,0.1
			s-4.7,0.2-6.9,0.3l0.5-7.1c4,0,7.7,0.1,11.2,0.1c6.4,0,11.9,0,16.4-0.1l0,0c-0.5,5.6-2.8,10.9-6.6,15.1l-11.3,12.6l-1.2,1.2
			c2.3,0.1,4.3,0.1,5.9,0.1c3.4,0,5.8,0,7.1-0.1l4.8-0.1c-0.2,1.7-0.3,4-0.5,6.9c-4.1,0-8.8-0.1-14-0.1
			C222.2,59.3,217.4,59.3,213.2,59.4z"/>
	</g>
	<g>
		<path class="st0" d="M214.1,13.1l-1.6,0.3c-1.4,0.3-2.4,1.6-2.1,3.1l0.3,1.5c0.5,2.9-3.4,4.4-4.9,1.8l-0.9-1.6
			c-0.7-1.2-2.2-1.6-3.5-1l-1.4,0.7c-0.4,0.2-0.7,0.3-1.1,0.3L180.2,55l-2,4.4c-3,0-5.1-0.1-6.1-0.1c-0.9,0-3.1,0-6.4,0.1l-1.3-4.4
			c-0.2-0.6-1-2.8-2.3-6.7l-6.8-19.4l-6.3-17.4c2.4,0,4.4,0.1,6,0.1h1.1c2.4,0,4.5,1.6,5.1,3.8c0.2,0.8,0.6,1.9,1,3.2l8.5,25.8
			c0.5,1.7,1.2,3.9,2,6.6l1.9-4.3c0.5-1.1,1.4-3.1,2.9-6.2l11.1-23.1c0.3-0.7,0.7-1.4,1-2.2c0,0,0,0,0,0c0.9-2.2,3.1-3.7,5.5-3.6
			c0.7,0,1.3,0,1.8,0c0.3,0,0.8,0,1.5,0c0.3-0.9,0.1-1.9-0.6-2.6l-1.2-1.3c-2-2.2,0.4-5.5,3.1-4.2l1.4,0.7c1.3,0.6,2.8,0.1,3.5-1.1
			l0.9-1.6c1.4-2.6,5.4-1.2,5,1.7l-0.2,1.5c-0.2,1.4,0.8,2.8,2.2,3l1.7,0.3C217,8.3,217.1,12.5,214.1,13.1z"/>
	</g>
</g>
</svg>
