<?xml version="1.0" encoding="utf-8"?>
<!-- Generator: Adobe Illustrator 27.3.1, SVG Export Plug-In . SVG Version: 6.00 Build 0)  -->
<svg version="1.1" id="Layer_1" xmlns="http://www.w3.org/2000/svg" xmlns:xlink="http://www.w3.org/1999/xlink" x="0px" y="0px"
	 viewBox="0 0 126.6 80.3" style="enable-background:new 0 0 126.6 80.3;" xml:space="preserve">
<style type="text/css">
	.st0{fill:#56B947;}
	.st1{fill:none;stroke:#414042;stroke-width:7;}
	.st2{fill:none;stroke:#E6E7E8;stroke-width:3;}
	.st3{fill:#2BB673;}
</style>
<g>
	<g>
		<g>
			<path class="st0" d="M59.3,61.2c-7.3,0.6-18.4,0.6-21.1,0.6c-3.8,0-7.4,0.2-10-1.3c-2.6-1.5-4.5-3.5-5.6-5.9
				c-1.2-2.4-1.8-5.2-1.8-8.2c0-2.6,0.5-5,1.4-7.4c1-2.4,2.3-4.4,4.1-6c1.8-1.7,3.8-2.9,6.1-3.6c2.3-0.8,4.7-1.1,7.2-1.1
				c1.6,0,3.3,0.1,5,0.4c0.8,0.1,2,0.3,3.4,0.5L45.3,21c-2.4-0.3-4.7-0.4-6.9-0.4c-3.8,0-7.5,0.6-11.1,1.7c-3.5,1.1-6.6,2.8-9.2,5.1
				c-2.6,2.3-4.6,5.1-6,8.4c-1.4,3.3-2.1,6.9-2.1,10.8c0,3.6,0.6,6.9,1.7,9.9c1.2,3,3,5.6,5.6,7.7c2.6,2.1,5.5,3.7,8.7,4.7
				c3.2,1,6.6,1.5,10.1,1.5c1.6,0,3.5-0.1,5.7-0.3c1.5-0.1,13-0.5,20.2-0.8L59.3,61.2z"/>
		</g>
		<g>
			<path class="st0" d="M114.3,23.1l-1.6,0.3c-1.4,0.3-2.4,1.7-2.1,3.1l0.3,1.5c0.5,2.9-3.4,4.4-4.9,1.8l-0.9-1.6
				c-0.7-1.2-2.2-1.6-3.5-1l-1.4,0.7c-0.4,0.2-0.7,0.3-1.1,0.3L80.4,65l-2,4.4c-3,0-5.1-0.1-6.1-0.1c-0.9,0-3.1,0-6.4,0.1L64.5,65
				c-0.2-0.6-1-2.8-2.3-6.7l-6.8-19.4l-6.3-17.4c2.4,0,4.4,0.1,6,0.1c0.3,0,0.7,0,1.1,0c2.4,0,4.5,1.5,5.1,3.8
				c0.2,0.8,0.6,1.9,1,3.2l8.5,25.8c0.5,1.7,1.2,3.9,2,6.6l1.9-4.3c0.5-1,1.4-3.1,2.9-6.2l11.1-23.1c0.3-0.7,0.7-1.4,1-2.2
				c0,0,0,0,0,0c1-2.2,3.1-3.7,5.6-3.6c0.7,0,1.3,0,1.8,0c0.3,0,0.8,0,1.5,0c0.3-0.9,0.1-1.9-0.6-2.6l-1.2-1.3
				c-2-2.1,0.4-5.5,3.1-4.2l1.4,0.7c1.3,0.6,2.8,0.1,3.5-1.1l0.9-1.6c1.4-2.6,5.4-1.2,5,1.7l-0.2,1.5c-0.2,1.4,0.8,2.8,2.2,3
				l1.6,0.3C117.2,18.3,117.2,22.5,114.3,23.1z"/>
		</g>
	</g>
	<g>
		<g>
			<path class="st1" d="M59.3,61.2c-7.3,0.6-18.4,0.6-21.1,0.6c-3.8,0-7.4,0.2-10-1.3c-2.6-1.5-4.5-3.5-5.6-5.9
				c-1.2-2.4-1.8-5.2-1.8-8.2c0-2.6,0.5-5,1.4-7.4c1-2.4,2.3-4.4,4.1-6c1.8-1.7,3.8-2.9,6.1-3.6c2.3-0.8,4.7-1.1,7.2-1.1
				c1.6,0,3.3,0.1,5,0.4c0.8,0.1,2,0.3,3.4,0.5L45.3,21c-2.4-0.3-4.7-0.4-6.9-0.4c-3.8,0-7.5,0.6-11.1,1.7c-3.5,1.1-6.6,2.8-9.2,5.1
				c-2.6,2.3-4.6,5.1-6,8.4c-1.4,3.3-2.1,6.9-2.1,10.8c0,3.6,0.6,6.9,1.7,9.9c1.2,3,3,5.6,5.6,7.7c2.6,2.1,5.5,3.7,8.7,4.7
				c3.2,1,6.6,1.5,10.1,1.5c1.6,0,3.5-0.1,5.7-0.3c1.5-0.1,13-0.5,20.2-0.8L59.3,61.2z"/>
			<path class="st1" d="M59.3,61.2c-7.3,0.6-18.4,0.6-21.1,0.6c-3.8,0-7.4,0.2-10-1.3c-2.6-1.5-4.5-3.5-5.6-5.9
				c-1.2-2.4-1.8-5.2-1.8-8.2c0-2.6,0.5-5,1.4-7.4c1-2.4,2.3-4.4,4.1-6c1.8-1.7,3.8-2.9,6.1-3.6c2.3-0.8,4.7-1.1,7.2-1.1
				c1.6,0,3.3,0.1,5,0.4c0.8,0.1,2,0.3,3.4,0.5L45.3,21c-2.4-0.3-4.7-0.4-6.9-0.4c-3.8,0-7.5,0.6-11.1,1.7c-3.5,1.1-6.6,2.8-9.2,5.1
				c-2.6,2.3-4.6,5.1-6,8.4c-1.4,3.3-2.1,6.9-2.1,10.8c0,3.6,0.6,6.9,1.7,9.9c1.2,3,3,5.6,5.6,7.7c2.6,2.1,5.5,3.7,8.7,4.7
				c3.2,1,6.6,1.5,10.1,1.5c1.6,0,3.5-0.1,5.7-0.3c1.5-0.1,13-0.5,20.2-0.8L59.3,61.2z"/>
		</g>
		<g>
			<path class="st1" d="M114.3,23.1l-1.6,0.3c-1.4,0.3-2.4,1.7-2.1,3.1l0.3,1.5c0.5,2.9-3.4,4.4-4.9,1.8l-0.9-1.6
				c-0.7-1.2-2.2-1.6-3.5-1l-1.4,0.7c-0.4,0.2-0.7,0.3-1.1,0.3L80.4,65l-2,4.4c-3,0-5.1-0.1-6.1-0.1c-0.9,0-3.1,0-6.4,0.1L64.5,65
				c-0.2-0.6-1-2.8-2.3-6.7l-6.8-19.4l-6.3-17.4c2.4,0,4.4,0.1,6,0.1c0.3,0,0.7,0,1.1,0c2.4,0,4.5,1.5,5.1,3.8
				c0.2,0.8,0.6,1.9,1,3.2l8.5,25.8c0.5,1.7,1.2,3.9,2,6.6l1.9-4.3c0.5-1,1.4-3.1,2.9-6.2l11.1-23.1c0.3-0.7,0.7-1.4,1-2.2
				c0,0,0,0,0,0c1-2.2,3.1-3.7,5.6-3.6c0.7,0,1.3,0,1.8,0c0.3,0,0.8,0,1.5,0c0.3-0.9,0.1-1.9-0.6-2.6l-1.2-1.3
				c-2-2.1,0.4-5.5,3.1-4.2l1.4,0.7c1.3,0.6,2.8,0.1,3.5-1.1l0.9-1.6c1.4-2.6,5.4-1.2,5,1.7l-0.2,1.5c-0.2,1.4,0.8,2.8,2.2,3
				l1.6,0.3C117.2,18.3,117.2,22.5,114.3,23.1z"/>
			<path class="st1" d="M114.3,23.1l-1.6,0.3c-1.4,0.3-2.4,1.7-2.1,3.1l0.3,1.5c0.5,2.9-3.4,4.4-4.9,1.8l-0.9-1.6
				c-0.7-1.2-2.2-1.6-3.5-1l-1.4,0.7c-0.4,0.2-0.7,0.3-1.1,0.3L80.4,65l-2,4.4c-3,0-5.1-0.1-6.1-0.1c-0.9,0-3.1,0-6.4,0.1L64.5,65
				c-0.2-0.6-1-2.8-2.3-6.7l-6.8-19.4l-6.3-17.4c2.4,0,4.4,0.1,6,0.1c0.3,0,0.7,0,1.1,0c2.4,0,4.5,1.5,5.1,3.8
				c0.2,0.8,0.6,1.9,1,3.2l8.5,25.8c0.5,1.7,1.2,3.9,2,6.6l1.9-4.3c0.5-1,1.4-3.1,2.9-6.2l11.1-23.1c0.3-0.7,0.7-1.4,1-2.2
				c0,0,0,0,0,0c1-2.2,3.1-3.7,5.6-3.6c0.7,0,1.3,0,1.8,0c0.3,0,0.8,0,1.5,0c0.3-0.9,0.1-1.9-0.6-2.6l-1.2-1.3
				c-2-2.1,0.4-5.5,3.1-4.2l1.4,0.7c1.3,0.6,2.8,0.1,3.5-1.1l0.9-1.6c1.4-2.6,5.4-1.2,5,1.7l-0.2,1.5c-0.2,1.4,0.8,2.8,2.2,3
				l1.6,0.3C117.2,18.3,117.2,22.5,114.3,23.1z"/>
		</g>
	</g>
	<g>
		<g>
			<path class="st2" d="M59.3,61.2c-7.3,0.6-18.4,0.6-21.1,0.6c-3.8,0-7.4,0.2-10-1.3c-2.6-1.5-4.5-3.5-5.6-5.9
				c-1.2-2.4-1.8-5.2-1.8-8.2c0-2.6,0.5-5,1.4-7.4c1-2.4,2.3-4.4,4.1-6c1.8-1.7,3.8-2.9,6.1-3.6c2.3-0.8,4.7-1.1,7.2-1.1
				c1.6,0,3.3,0.1,5,0.4c0.8,0.1,2,0.3,3.4,0.5L45.3,21c-2.4-0.3-4.7-0.4-6.9-0.4c-3.8,0-7.5,0.6-11.1,1.7c-3.5,1.1-6.6,2.8-9.2,5.1
				c-2.6,2.3-4.6,5.1-6,8.4c-1.4,3.3-2.1,6.9-2.1,10.8c0,3.6,0.6,6.9,1.7,9.9c1.2,3,3,5.6,5.6,7.7c2.6,2.1,5.5,3.7,8.7,4.7
				c3.2,1,6.6,1.5,10.1,1.5c1.6,0,3.5-0.1,5.7-0.3c1.5-0.1,13-0.5,20.2-0.8L59.3,61.2z"/>
			<path class="st2" d="M59.3,61.2c-7.3,0.6-18.4,0.6-21.1,0.6c-3.8,0-7.4,0.2-10-1.3c-2.6-1.5-4.5-3.5-5.6-5.9
				c-1.2-2.4-1.8-5.2-1.8-8.2c0-2.6,0.5-5,1.4-7.4c1-2.4,2.3-4.4,4.1-6c1.8-1.7,3.8-2.9,6.1-3.6c2.3-0.8,4.7-1.1,7.2-1.1
				c1.6,0,3.3,0.1,5,0.4c0.8,0.1,2,0.3,3.4,0.5L45.3,21c-2.4-0.3-4.7-0.4-6.9-0.4c-3.8,0-7.5,0.6-11.1,1.7c-3.5,1.1-6.6,2.8-9.2,5.1
				c-2.6,2.3-4.6,5.1-6,8.4c-1.4,3.3-2.1,6.9-2.1,10.8c0,3.6,0.6,6.9,1.7,9.9c1.2,3,3,5.6,5.6,7.7c2.6,2.1,5.5,3.7,8.7,4.7
				c3.2,1,6.6,1.5,10.1,1.5c1.6,0,3.5-0.1,5.7-0.3c1.5-0.1,13-0.5,20.2-0.8L59.3,61.2z"/>
		</g>
		<g>
			<path class="st2" d="M114.3,23.1l-1.6,0.3c-1.4,0.3-2.4,1.7-2.1,3.1l0.3,1.5c0.5,2.9-3.4,4.4-4.9,1.8l-0.9-1.6
				c-0.7-1.2-2.2-1.6-3.5-1l-1.4,0.7c-0.4,0.2-0.7,0.3-1.1,0.3L80.4,65l-2,4.4c-3,0-5.1-0.1-6.1-0.1c-0.9,0-3.1,0-6.4,0.1L64.5,65
				c-0.2-0.6-1-2.8-2.3-6.7l-6.8-19.4l-6.3-17.4c2.4,0,4.4,0.1,6,0.1c0.3,0,0.7,0,1.1,0c2.4,0,4.5,1.5,5.1,3.8
				c0.2,0.8,0.6,1.9,1,3.2l8.5,25.8c0.5,1.7,1.2,3.9,2,6.6l1.9-4.3c0.5-1,1.4-3.1,2.9-6.2l11.1-23.1c0.3-0.7,0.7-1.4,1-2.2
				c0,0,0,0,0,0c1-2.2,3.1-3.7,5.6-3.6c0.7,0,1.3,0,1.8,0c0.3,0,0.8,0,1.5,0c0.3-0.9,0.1-1.9-0.6-2.6l-1.2-1.3
				c-2-2.1,0.4-5.5,3.1-4.2l1.4,0.7c1.3,0.6,2.8,0.1,3.5-1.1l0.9-1.6c1.4-2.6,5.4-1.2,5,1.7l-0.2,1.5c-0.2,1.4,0.8,2.8,2.2,3
				l1.6,0.3C117.2,18.3,117.2,22.5,114.3,23.1z"/>
			<path class="st2" d="M114.3,23.1l-1.6,0.3c-1.4,0.3-2.4,1.7-2.1,3.1l0.3,1.5c0.5,2.9-3.4,4.4-4.9,1.8l-0.9-1.6
				c-0.7-1.2-2.2-1.6-3.5-1l-1.4,0.7c-0.4,0.2-0.7,0.3-1.1,0.3L80.4,65l-2,4.4c-3,0-5.1-0.1-6.1-0.1c-0.9,0-3.1,0-6.4,0.1L64.5,65
				c-0.2-0.6-1-2.8-2.3-6.7l-6.8-19.4l-6.3-17.4c2.4,0,4.4,0.1,6,0.1c0.3,0,0.7,0,1.1,0c2.4,0,4.5,1.5,5.1,3.8
				c0.2,0.8,0.6,1.9,1,3.2l8.5,25.8c0.5,1.7,1.2,3.9,2,6.6l1.9-4.3c0.5-1,1.4-3.1,2.9-6.2l11.1-23.1c0.3-0.7,0.7-1.4,1-2.2
				c0,0,0,0,0,0c1-2.2,3.1-3.7,5.6-3.6c0.7,0,1.3,0,1.8,0c0.3,0,0.8,0,1.5,0c0.3-0.9,0.1-1.9-0.6-2.6l-1.2-1.3
				c-2-2.1,0.4-5.5,3.1-4.2l1.4,0.7c1.3,0.6,2.8,0.1,3.5-1.1l0.9-1.6c1.4-2.6,5.4-1.2,5,1.7l-0.2,1.5c-0.2,1.4,0.8,2.8,2.2,3
				l1.6,0.3C117.2,18.3,117.2,22.5,114.3,23.1z"/>
		</g>
	</g>
	<g>
		<g>
			<path class="st3" d="M59.3,61.2c-7.3,0.6-18.4,0.6-21.1,0.6c-3.8,0-7.4,0.2-10-1.3c-2.6-1.5-4.5-3.5-5.6-5.9
				c-1.2-2.4-1.8-5.2-1.8-8.2c0-2.6,0.5-5,1.4-7.4c1-2.4,2.3-4.4,4.1-6c1.8-1.7,3.8-2.9,6.1-3.6c2.3-0.8,4.7-1.1,7.2-1.1
				c1.6,0,3.3,0.1,5,0.4c0.8,0.1,2,0.3,3.4,0.5L45.3,21c-2.4-0.3-4.7-0.4-6.9-0.4c-3.8,0-7.5,0.6-11.1,1.7c-3.5,1.1-6.6,2.8-9.2,5.1
				c-2.6,2.3-4.6,5.1-6,8.4c-1.4,3.3-2.1,6.9-2.1,10.8c0,3.6,0.6,6.9,1.7,9.9c1.2,3,3,5.6,5.6,7.7c2.6,2.1,5.5,3.7,8.7,4.7
				c3.2,1,6.6,1.5,10.1,1.5c1.6,0,3.5-0.1,5.7-0.3c1.5-0.1,13-0.5,20.2-0.8L59.3,61.2z"/>
			<path class="st3" d="M59.3,61.2c-7.3,0.6-18.4,0.6-21.1,0.6c-3.8,0-7.4,0.2-10-1.3c-2.6-1.5-4.5-3.5-5.6-5.9
				c-1.2-2.4-1.8-5.2-1.8-8.2c0-2.6,0.5-5,1.4-7.4c1-2.4,2.3-4.4,4.1-6c1.8-1.7,3.8-2.9,6.1-3.6c2.3-0.8,4.7-1.1,7.2-1.1
				c1.6,0,3.3,0.1,5,0.4c0.8,0.1,2,0.3,3.4,0.5L45.3,21c-2.4-0.3-4.7-0.4-6.9-0.4c-3.8,0-7.5,0.6-11.1,1.7c-3.5,1.1-6.6,2.8-9.2,5.1
				c-2.6,2.3-4.6,5.1-6,8.4c-1.4,3.3-2.1,6.9-2.1,10.8c0,3.6,0.6,6.9,1.7,9.9c1.2,3,3,5.6,5.6,7.7c2.6,2.1,5.5,3.7,8.7,4.7
				c3.2,1,6.6,1.5,10.1,1.5c1.6,0,3.5-0.1,5.7-0.3c1.5-0.1,13-0.5,20.2-0.8L59.3,61.2z"/>
		</g>
		<g>
			<path class="st3" d="M114.3,23.1l-1.6,0.3c-1.4,0.3-2.4,1.7-2.1,3.1l0.3,1.5c0.5,2.9-3.4,4.4-4.9,1.8l-0.9-1.6
				c-0.7-1.2-2.2-1.6-3.5-1l-1.4,0.7c-0.4,0.2-0.7,0.3-1.1,0.3L80.4,65l-2,4.4c-3,0-5.1-0.1-6.1-0.1c-0.9,0-3.1,0-6.4,0.1L64.5,65
				c-0.2-0.6-1-2.8-2.3-6.7l-6.8-19.4l-6.3-17.4c2.4,0,4.4,0.1,6,0.1c0.3,0,0.7,0,1.1,0c2.4,0,4.5,1.5,5.1,3.8
				c0.2,0.8,0.6,1.9,1,3.2l8.5,25.8c0.5,1.7,1.2,3.9,2,6.6l1.9-4.3c0.5-1,1.4-3.1,2.9-6.2l11.1-23.1c0.3-0.7,0.7-1.4,1-2.2
				c0,0,0,0,0,0c1-2.2,3.1-3.7,5.6-3.6c0.7,0,1.3,0,1.8,0c0.3,0,0.8,0,1.5,0c0.3-0.9,0.1-1.9-0.6-2.6l-1.2-1.3
				c-2-2.1,0.4-5.5,3.1-4.2l1.4,0.7c1.3,0.6,2.8,0.1,3.5-1.1l0.9-1.6c1.4-2.6,5.4-1.2,5,1.7l-0.2,1.5c-0.2,1.4,0.8,2.8,2.2,3
				l1.6,0.3C117.2,18.3,117.2,22.5,114.3,23.1z"/>
			<path class="st3" d="M114.3,23.1l-1.6,0.3c-1.4,0.3-2.4,1.7-2.1,3.1l0.3,1.5c0.5,2.9-3.4,4.4-4.9,1.8l-0.9-1.6
				c-0.7-1.2-2.2-1.6-3.5-1l-1.4,0.7c-0.4,0.2-0.7,0.3-1.1,0.3L80.4,65l-2,4.4c-3,0-5.1-0.1-6.1-0.1c-0.9,0-3.1,0-6.4,0.1L64.5,65
				c-0.2-0.6-1-2.8-2.3-6.7l-6.8-19.4l-6.3-17.4c2.4,0,4.4,0.1,6,0.1c0.3,0,0.7,0,1.1,0c2.4,0,4.5,1.5,5.1,3.8
				c0.2,0.8,0.6,1.9,1,3.2l8.5,25.8c0.5,1.7,1.2,3.9,2,6.6l1.9-4.3c0.5-1,1.4-3.1,2.9-6.2l11.1-23.1c0.3-0.7,0.7-1.4,1-2.2
				c0,0,0,0,0,0c1-2.2,3.1-3.7,5.6-3.6c0.7,0,1.3,0,1.8,0c0.3,0,0.8,0,1.5,0c0.3-0.9,0.1-1.9-0.6-2.6l-1.2-1.3
				c-2-2.1,0.4-5.5,3.1-4.2l1.4,0.7c1.3,0.6,2.8,0.1,3.5-1.1l0.9-1.6c1.4-2.6,5.4-1.2,5,1.7l-0.2,1.5c-0.2,1.4,0.8,2.8,2.2,3
				l1.6,0.3C117.2,18.3,117.2,22.5,114.3,23.1z"/>
		</g>
	</g>
</g>
</svg>
