<?xml version="1.0" standalone="no"?>
<!DOCTYPE svg PUBLIC "-//W3C//DTD SVG 20010904//EN"
 "http://www.w3.org/TR/2001/REC-SVG-20010904/DTD/svg10.dtd">
<svg version="1.0" xmlns="http://www.w3.org/2000/svg"
 width="1016.000000pt" height="1016.000000pt" viewBox="0 0 1016.000000 1016.000000"
 preserveAspectRatio="xMidYMid meet">
<metadata>
Created by potrace 1.14, written by Peter Selinger 2001-2017
</metadata>
<g transform="translate(0.000000,1016.000000) scale(0.100000,-0.100000)"
fill="#000000" stroke="none">
<path d="M8575 7762 c-95 -18 -204 -81 -270 -154 -42 -47 -55 -66 -87 -128
-18 -36 -28 -40 -54 -23 -97 63 -295 79 -409 34 -81 -33 -123 -60 -179 -117
-38 -38 -108 -141 -112 -164 0 -3 -8 -30 -18 -60 -21 -67 -22 -186 -1 -254 16
-51 20 -84 9 -73 -8 8 -119 -34 -181 -68 -164 -91 -255 -200 -366 -440 -65
-141 -145 -309 -253 -530 -32 -66 -59 -122 -59 -125 -1 -3 -30 -63 -64 -135
-145 -298 -206 -425 -246 -510 -23 -49 -77 -162 -120 -250 -143 -296 -183
-380 -228 -474 -45 -96 -47 -97 -62 -41 -1 3 -4 12 -8 20 -7 16 -119 359 -123
375 -2 6 -37 114 -79 240 -42 127 -78 235 -79 240 -2 6 -5 17 -8 25 -12 33
-50 149 -148 450 -56 173 -106 324 -111 335 -10 24 -80 242 -83 259 -1 6 -7
25 -13 41 -6 17 -21 62 -33 100 -48 159 -127 275 -250 369 -83 63 -213 120
-300 132 -34 5 -329 14 -575 17 -110 2 -206 7 -214 11 -7 5 -25 10 -40 11 -14
2 -46 6 -71 9 -25 4 -63 9 -85 11 -86 9 -172 17 -215 21 -84 8 -525 9 -620 1
-112 -9 -257 -30 -370 -52 -14 -3 -38 -8 -55 -11 -36 -7 -45 -9 -65 -16 -8 -3
-40 -11 -70 -18 -89 -20 -186 -50 -310 -97 -87 -33 -291 -131 -312 -151 -10
-8 -18 -12 -18 -9 0 5 -21 -7 -124 -75 -221 -145 -446 -372 -597 -604 -56 -85
-186 -324 -188 -347 0 -4 -8 -24 -17 -45 -23 -54 -83 -237 -89 -274 -3 -17
-11 -40 -17 -52 -6 -11 -10 -22 -9 -24 3 -2 -1 -26 -14 -92 -3 -14 -8 -47 -11
-75 -4 -27 -8 -53 -10 -56 -10 -17 -18 -198 -18 -379 1 -187 5 -272 19 -355 3
-16 7 -41 9 -55 11 -72 21 -115 47 -221 74 -300 190 -530 388 -771 35 -43 179
-180 241 -228 36 -28 72 -57 80 -63 8 -7 44 -31 80 -54 36 -23 70 -46 76 -50
22 -17 197 -114 214 -118 3 -1 28 -12 55 -25 109 -49 132 -59 160 -66 17 -4
35 -10 40 -14 19 -14 265 -81 345 -95 19 -3 42 -8 50 -10 14 -4 49 -9 130 -21
19 -3 46 -7 60 -9 164 -25 536 -25 820 0 46 4 279 14 450 20 204 7 629 23 780
30 52 2 165 7 250 11 85 3 173 7 195 8 22 1 51 -3 65 -9 14 -6 39 -9 55 -7 17
2 324 5 684 6 l654 1 21 45 c12 25 46 99 75 165 30 66 70 154 88 195 34 75
127 260 208 418 24 45 40 82 37 82 -4 0 -2 4 3 8 6 4 50 86 98 182 49 96 124
245 168 332 43 86 79 159 79 163 0 3 5 11 10 18 6 7 46 82 89 167 70 141 327
647 669 1320 100 197 136 259 158 272 43 25 48 22 77 -31 15 -27 34 -54 42
-61 8 -7 15 -18 16 -24 0 -15 94 -93 144 -120 115 -62 229 -74 374 -39 84 19
198 104 277 205 62 79 91 236 69 371 -6 37 -4 47 6 48 8 0 21 2 29 4 8 2 26 5
40 8 14 3 39 11 55 18 17 7 32 13 35 14 11 2 75 38 80 44 3 4 18 16 33 28 69
53 135 161 163 265 11 45 12 189 1 234 -20 82 -78 178 -146 241 -31 29 -159
104 -178 104 -5 0 -17 2 -28 4 -30 7 -68 13 -87 14 -15 1 -17 12 -14 99 4 130
-24 234 -89 321 -63 85 -197 174 -295 196 -39 9 -174 14 -205 7z m-5190 -2026
c39 -3 81 -8 95 -11 31 -6 98 -16 130 -20 67 -8 127 -16 150 -21 14 -2 36 -6
50 -9 29 -5 116 -16 144 -18 12 -1 23 -13 29 -32 5 -16 15 -43 22 -60 7 -16
34 -91 60 -165 26 -74 51 -144 56 -155 7 -17 93 -260 225 -640 20 -55 38 -107
41 -115 3 -8 7 -19 9 -25 3 -13 93 -265 101 -285 3 -8 8 -26 10 -40 2 -13 7
-27 11 -30 4 -3 18 -39 31 -80 14 -41 29 -81 34 -87 5 -7 7 -13 4 -13 -3 0 8
-37 25 -82 16 -46 31 -87 33 -93 1 -5 5 -17 8 -25 28 -67 28 -70 -1 -71 -15 0
-47 -2 -72 -4 -125 -11 -439 -23 -775 -30 -263 -5 -1111 -5 -1160 0 -171 19
-229 41 -346 132 -85 65 -118 99 -168 173 -85 125 -135 259 -167 450 -8 45 -8
324 -1 370 3 19 8 50 11 67 10 70 59 222 99 308 23 50 44 92 47 95 3 3 23 32
45 64 82 121 234 255 369 323 89 45 248 98 325 108 14 2 26 4 26 5 0 3 38 8
115 15 41 4 76 8 77 9 5 3 248 -3 308 -8z"/>
</g>
</svg>
